<?xml version="1.0" standalone="no"?>
<!DOCTYPE svg PUBLIC "-//W3C//DTD SVG 20010904//EN"
 "http://www.w3.org/TR/2001/REC-SVG-20010904/DTD/svg10.dtd">
<svg version="1.0" xmlns="http://www.w3.org/2000/svg"
 width="1280.000000pt" height="366.000000pt" viewBox="0 0 1280.000000 366.000000"
 preserveAspectRatio="xMidYMid meet">

<g transform="translate(0.000000,366.000000) scale(0.100000,-0.100000)"
fill="#000000" stroke="none">
<path d="M1754 3419 c-203 -18 -414 -78 -598 -171 -190 -95 -321 -193 -474
-353 -636 -666 -588 -1713 106 -2328 157 -139 383 -271 490 -285 159 -21 297
49 373 190 32 58 34 69 34 153 0 77 -4 98 -27 147 -36 77 -97 135 -197 189
-260 138 -437 379 -492 666 -7 39 -10 115 -7 200 5 114 10 153 33 223 147 458
602 736 1071 655 196 -34 356 -113 496 -244 132 -123 222 -273 270 -446 31
-114 31 -344 -1 -460 -69 -256 -231 -458 -471 -590 -103 -57 -162 -112 -198
-185 -24 -48 -27 -67 -27 -150 0 -83 3 -102 28 -151 30 -62 103 -136 164 -168
22 -11 69 -25 105 -31 108 -19 212 17 398 138 376 243 625 608 722 1052 19 90
22 134 22 315 0 181 -3 225 -22 315 -72 331 -215 594 -451 831 -289 288 -650
455 -1057 489 -133 11 -160 11 -290 -1z"/>
<path d="M10895 3248 c-3 -7 -4 -510 -3 -1118 l3 -1105 195 0 195 0 3 225 2
226 143 142 143 142 268 -370 269 -370 225 2 c139 2 226 7 228 13 2 6 -158
233 -356 505 l-359 495 341 341 c201 202 338 346 334 353 -5 8 -85 11 -259 11
l-251 0 -356 -355 c-195 -195 -359 -355 -363 -355 -4 0 -7 277 -7 615 l0 615
-195 0 c-147 0 -197 -3 -200 -12z"/>
<path d="M5146 2759 c-287 -29 -542 -211 -679 -484 -222 -445 -33 -997 414
-1204 131 -61 203 -76 359 -75 109 0 150 4 213 22 97 28 166 62 217 109 l40
35 0 -76 c0 -198 -81 -345 -230 -421 -205 -104 -511 -56 -680 106 -28 27 -59
49 -68 49 -25 0 -252 -230 -252 -255 0 -40 134 -149 267 -218 110 -57 228 -92
364 -108 139 -16 332 -7 427 21 277 79 487 301 551 583 18 76 20 151 25 970 5
618 3 893 -4 907 -10 19 -21 20 -193 20 -129 0 -187 -4 -195 -12 -7 -7 -12
-38 -12 -70 l0 -58 -60 44 c-124 92 -312 134 -504 115z m236 -420 c198 -67
328 -251 328 -467 0 -287 -268 -521 -542 -474 -299 52 -476 360 -373 652 32
92 117 193 208 249 101 62 263 79 379 40z"/>
<path d="M9691 2760 c-292 -41 -544 -229 -670 -502 -63 -136 -76 -201 -76
-378 0 -177 13 -242 76 -378 143 -311 435 -502 769 -504 229 -1 414 71 587
226 66 60 153 174 153 202 0 17 -30 40 -145 108 -80 47 -154 86 -164 86 -11 0
-28 -14 -40 -32 -46 -76 -148 -147 -255 -180 -55 -17 -85 -20 -158 -16 -80 5
-99 10 -173 47 -61 30 -97 56 -138 101 -49 53 -117 168 -117 199 0 8 180 11
644 11 594 0 646 1 662 17 15 15 16 33 11 143 -8 189 -52 324 -151 474 -117
176 -297 304 -500 356 -89 23 -230 31 -315 20z m241 -410 c122 -37 222 -119
282 -230 l27 -50 -440 0 c-243 0 -441 4 -441 8 0 5 17 35 38 68 68 104 180
187 289 213 68 16 177 12 245 -9z"/>
<path d="M7050 2745 c-176 -37 -305 -107 -433 -232 -294 -288 -351 -744 -137
-1105 54 -90 173 -215 262 -274 363 -241 852 -167 1127 171 160 197 232 469
190 724 -33 205 -158 419 -320 545 -83 66 -224 136 -319 161 -89 23 -287 28
-370 10z m285 -397 c117 -29 244 -136 300 -253 158 -328 -69 -705 -425 -705
-187 0 -344 101 -426 275 -117 246 -14 538 232 655 97 47 205 56 319 28z"/>
<path d="M8312 2728 c-9 -9 -12 -217 -12 -873 0 -938 1 -920 -57 -1027 -51
-94 -157 -171 -278 -203 -30 -7 -60 -17 -65 -20 -6 -4 -10 -76 -10 -179 0
-206 -2 -202 98 -193 202 19 400 122 527 275 67 80 137 217 167 327 22 79 22
91 26 978 2 682 0 902 -9 913 -15 19 -368 21 -387 2z"/>
<path d="M1780 2344 c-106 -22 -204 -77 -285 -158 -116 -117 -169 -242 -169
-401 0 -159 53 -284 169 -401 228 -229 597 -230 826 -4 118 117 172 243 172
405 0 162 -54 288 -172 405 -141 140 -343 197 -541 154z"/>
</g>
</svg>
