<svg version="1.1" id="Layer_1" xmlns="http://www.w3.org/2000/svg" xmlns:xlink="http://www.w3.org/1999/xlink" x="0px" y="0px"
	 width="100%" viewBox="0 0 1280 366" enable-background="new 0 0 1280 366" xml:space="preserve">
<path fill="#000000" opacity="1.000000" stroke="none" 
	d="
M828.000000,367.000000 
	C553.500061,367.000000 279.500061,366.991058 5.500133,367.093262 
	C1.751182,367.094666 0.901948,366.249878 0.905570,362.500000 
	C1.020513,243.500122 1.020500,124.500099 0.905614,5.500233 
	C0.901994,1.750960 1.750449,0.906162 5.499878,0.907036 
	C429.166504,1.005799 852.833130,1.005793 1276.499756,0.907111 
	C1280.248047,0.906238 1281.098145,1.749519 1281.094482,5.499796 
	C1280.979614,124.499672 1280.979492,243.499695 1281.094360,362.499573 
	C1281.098022,366.248352 1280.250610,367.096832 1276.500244,367.094055 
	C1127.166870,366.983612 977.833435,367.000000 828.000000,367.000000 
z"/>
<path fill="#00AA13" opacity="1.000000" stroke="none" 
	d="
M248.219238,262.240112 
	C261.236603,251.883453 271.499176,240.011536 278.163269,224.809296 
	C284.156067,211.138458 286.795929,197.103943 285.883209,182.462570 
	C285.013733,168.514984 281.018921,155.399918 273.795166,143.190887 
	C269.891205,136.592697 265.481445,130.409256 260.273285,125.001961 
	C251.162842,115.543213 240.370285,108.126160 228.144623,103.165405 
	C214.503036,97.630112 200.190018,95.016472 185.498032,96.092651 
	C165.954651,97.524208 148.455658,104.578842 132.874481,116.560158 
	C122.736565,124.355820 114.744377,134.006668 108.695129,145.054779 
	C102.419434,156.516479 98.457550,168.817230 97.906731,182.165939 
	C97.270721,197.579041 99.248528,212.349274 105.960648,226.364975 
	C111.876076,238.717102 119.887802,249.303909 130.345032,258.304047 
	C137.706970,264.640228 146.389542,268.572998 154.391220,273.720032 
	C171.757080,284.890533 175.730042,306.454346 166.080261,322.641296 
	C159.694824,333.352478 149.984131,338.999634 137.344208,340.089264 
	C122.907410,341.333771 111.710068,334.203186 100.304237,327.133087 
	C80.362999,314.772217 64.052750,298.619263 50.941441,279.316833 
	C38.767502,261.394379 30.501949,241.594406 26.378895,220.361603 
	C23.004229,202.982803 22.508394,185.427673 24.756876,167.658173 
	C28.304512,139.621567 38.703308,114.417831 55.089912,91.829941 
	C68.594986,73.214050 85.707359,58.219139 105.740379,46.553196 
	C122.439323,36.828796 140.184494,30.178202 159.070251,26.528011 
	C166.017426,25.185278 173.040421,24.282965 180.166641,23.879831 
	C191.578934,23.234232 202.883530,23.586536 214.215103,24.947353 
	C229.528366,26.786329 244.168655,30.963577 258.427429,36.749252 
	C279.957703,45.485424 298.595947,58.523815 314.571014,75.198708 
	C334.423279,95.920692 347.868256,120.317154 355.194885,148.180969 
	C359.799622,165.693207 360.949188,183.474991 359.821503,201.313797 
	C358.601166,220.619247 353.359955,239.049500 345.193329,256.717041 
	C336.426056,275.683990 324.631500,292.461334 309.562042,306.729218 
	C295.761322,319.795807 280.440155,330.965729 262.579559,338.106323 
	C240.054138,347.111938 213.622238,331.204865 212.985962,305.493896 
	C212.582306,289.182709 219.827377,277.798584 234.476089,270.722870 
	C239.193558,268.444214 243.471283,265.255219 248.219238,262.240112 
z"/>
<path fill="#454545" opacity="1.000000" stroke="none" 
	d="
M524.880371,305.931305 
	C532.772522,304.526764 540.278137,303.791718 547.368469,300.474243 
	C561.708862,293.764648 568.561462,282.059784 570.910645,267.137360 
	C571.621155,262.623993 571.577026,257.991821 571.888123,253.268555 
	C568.835632,253.373520 567.751953,255.840576 565.958740,257.114899 
	C556.031372,264.169678 544.791687,266.760773 532.927002,268.111511 
	C513.683044,270.302368 496.034271,265.959625 479.785217,255.875565 
	C457.410583,241.989944 443.694031,221.737915 439.220154,195.967102 
	C434.582367,169.252106 439.982635,144.325089 457.165314,122.860779 
	C471.033478,105.536972 488.908417,94.417747 511.167694,90.980301 
	C526.753967,88.573349 541.876831,90.009697 556.556335,95.945320 
	C560.457764,97.522858 563.836548,99.778770 567.085266,102.389259 
	C569.341187,104.202011 571.006958,104.640511 571.109253,100.519112 
	C571.282898,93.525841 572.043274,93.015869 579.116638,93.005165 
	C588.445312,92.991051 597.776978,93.141815 607.101379,92.942818 
	C611.265503,92.853943 613.071350,94.064827 613.062744,98.578690 
	C612.953613,155.716751 613.385620,212.859497 612.751343,269.990723 
	C612.557861,287.417389 605.310303,303.000275 594.005859,316.603668 
	C581.565247,331.574310 565.772888,340.979431 546.738708,343.397400 
	C514.679382,347.469940 484.232727,343.230713 458.142792,321.810028 
	C455.564575,319.693207 453.191345,317.384125 450.664795,315.239990 
	C447.398865,312.468323 447.312836,309.454742 450.020508,306.637238 
	C456.827698,299.553741 463.791199,292.614136 470.866302,285.797729 
	C473.441162,283.316986 476.381592,283.761902 478.737000,286.422241 
	C488.810944,297.800385 501.847351,303.093811 516.562134,304.987061 
	C519.184998,305.324524 521.811890,305.631439 524.880371,305.931305 
z"/>
<path fill="#313131" opacity="1.000000" stroke="none" 
	d="
M657.140076,238.835220 
	C644.528076,224.367279 637.902832,207.828247 635.708313,189.127380 
	C633.791565,172.793213 636.218323,157.229156 642.974548,142.544266 
	C656.761230,112.578140 679.799561,94.637672 713.066223,90.820259 
	C741.113342,87.601799 764.853699,96.894226 784.234314,116.769920 
	C797.763794,130.645035 805.716431,147.622635 808.240906,167.109695 
	C811.403931,191.525665 805.936584,213.700638 791.410828,233.421967 
	C776.140808,254.153732 755.552124,265.710846 729.730652,268.243347 
	C707.809509,270.393311 688.515808,264.169434 670.808167,251.711273 
	C665.717468,248.129730 661.932861,243.218872 657.140076,238.835220 
z"/>
<path fill="#454545" opacity="1.000000" stroke="none" 
	d="
M969.698730,267.390076 
	C951.412292,265.030701 936.086426,257.612305 922.829102,245.415619 
	C906.047119,229.976364 896.407166,210.800415 894.309448,188.428558 
	C891.814209,161.817200 899.084106,137.874847 917.595398,117.866890 
	C929.637695,104.850952 943.903687,95.654495 961.381287,91.981339 
	C987.256042,86.543396 1011.254883,90.900276 1032.433716,107.086670 
	C1052.984375,122.792992 1064.352051,143.820648 1067.139160,169.598450 
	C1067.785156,175.573212 1068.182373,181.362671 1067.260742,187.375107 
	C1066.626709,191.511398 1064.619385,192.058762 1061.221436,192.033386 
	C1048.891968,191.941254 1036.561646,192.001190 1024.231567,192.001862 
	C996.738953,192.003387 969.246338,191.993301 941.753723,192.012772 
	C935.669922,192.017075 935.329590,192.578979 937.654236,198.201736 
	C950.026978,228.128616 988.248474,236.937729 1012.120667,215.273849 
	C1014.923706,212.730118 1017.443665,209.746185 1019.551331,206.601974 
	C1021.501465,203.692551 1023.619629,203.388672 1026.274048,204.964966 
	C1034.967407,210.127609 1043.572021,215.440262 1052.284302,220.570404 
	C1055.489868,222.457947 1055.619019,224.697418 1053.880371,227.613007 
	C1037.290283,255.434113 1002.610168,271.982574 969.698730,267.390076 
z"/>
<path fill="#454545" opacity="1.000000" stroke="none" 
	d="
M1151.740479,198.754883 
	C1146.073120,204.424942 1140.826294,210.035370 1135.169800,215.196732 
	C1131.904053,218.176620 1130.824707,221.406784 1130.918213,225.713196 
	C1131.160645,236.872940 1130.861328,248.043945 1131.062134,259.205353 
	C1131.139282,263.487701 1129.719116,265.170319 1125.311646,265.065033 
	C1115.651855,264.834290 1105.982910,265.008759 1096.317627,264.994659 
	C1089.035034,264.984039 1089.006104,264.968079 1089.004150,257.842438 
	C1088.993652,219.514633 1088.998535,181.186829 1088.998535,142.859024 
	C1088.998535,111.196930 1088.991943,79.534836 1089.004883,47.872746 
	C1089.007935,40.450924 1089.498291,39.984646 1097.048950,39.969818 
	C1105.714355,39.952797 1114.379761,39.952095 1123.045166,39.970036 
	C1130.854980,39.986210 1130.994019,40.117973 1130.995605,47.720234 
	C1131.003540,83.715034 1130.991821,119.709846 1131.021729,155.704620 
	C1131.023438,157.654541 1130.599243,159.676544 1131.650757,161.847748 
	C1133.756104,161.379135 1134.850830,159.612976 1136.183716,158.282944 
	C1156.826904,137.684296 1177.473755,117.089043 1198.015869,96.389862 
	C1200.434204,93.953125 1202.898804,92.895523 1206.341919,92.935394 
	C1220.338135,93.097443 1234.337402,92.963219 1248.334961,93.051407 
	C1250.165894,93.062943 1252.675781,92.043213 1253.648071,94.493034 
	C1254.568359,96.811981 1252.391968,98.071274 1251.029175,99.436668 
	C1231.016968,119.487938 1211.030762,139.565887 1190.896362,159.493866 
	C1187.910156,162.449463 1187.372192,164.199219 1190.197266,168.032272 
	C1212.486938,198.274887 1234.430664,228.772659 1256.416870,259.238068 
	C1257.325928,260.497681 1259.050537,261.879608 1258.257080,263.610809 
	C1257.312622,265.671906 1255.045288,264.956146 1253.300171,264.968475 
	C1240.137207,265.061493 1226.971680,264.972839 1213.811768,265.207397 
	C1210.732666,265.262268 1209.981323,263.195343 1208.665894,261.375092 
	C1193.719604,240.691589 1178.822021,219.972473 1163.776245,199.361481 
	C1158.460449,192.079559 1158.292114,192.202469 1151.740479,198.754883 
z"/>
<path fill="#454545" opacity="1.000000" stroke="none" 
	d="
M832.723511,93.454681 
	C844.622253,93.184135 856.112549,93.142212 867.601746,93.004318 
	C870.836548,92.965492 872.036926,94.467377 872.004272,97.575798 
	C871.927307,104.905312 871.998535,112.236305 871.998840,119.566704 
	C872.000916,168.047638 871.980103,216.528580 872.008911,265.009491 
	C872.022888,288.579010 863.013245,308.432190 846.021790,324.241302 
	C833.258240,336.116730 817.873962,343.260284 799.995300,344.058807 
	C789.994690,344.505432 790.001099,344.659973 790.000244,334.510864 
	C789.999634,327.180420 790.399780,319.820984 789.870117,312.529022 
	C789.471313,307.037506 791.611694,305.100525 796.695557,303.912750 
	C810.935669,300.585846 821.518860,292.489227 827.139221,278.593903 
	C830.309570,270.755829 830.867371,262.423401 830.899353,254.206100 
	C831.098328,203.060318 830.988342,151.913376 831.038391,100.766876 
	C831.040771,98.366982 830.230164,95.716400 832.723511,93.454681 
z"/>
<path fill="#00AA13" opacity="1.000000" stroke="none" 
	d="
M194.802185,246.997864 
	C176.311325,247.174652 160.593903,241.277176 148.041962,228.287964 
	C139.257812,219.197800 134.493103,208.019730 132.911652,195.342422 
	C130.563034,176.515030 136.339279,160.249161 149.491440,147.327774 
	C167.216919,129.913300 193.001862,124.908661 216.335663,135.174530 
	C234.840546,143.315872 246.564072,157.601974 250.438950,177.273849 
	C253.983582,195.269043 249.718292,211.777222 237.521912,226.089172 
	C226.343079,239.207031 211.934601,245.247467 194.802185,246.997864 
z"/>
<path fill="#000000" opacity="1.000000" stroke="none" 
	d="
M481.958252,197.903290 
	C469.385376,168.524323 488.656647,134.021408 522.109375,131.315277 
	C541.161377,129.774078 559.825623,140.283401 567.853638,161.371658 
	C576.816895,184.916367 568.257019,208.372238 546.719116,221.588730 
	C532.123840,230.544937 508.660248,227.895645 495.942230,216.639374 
	C489.958405,211.343277 485.471039,205.320801 481.958252,197.903290 
z"/>
<path fill="#000000" opacity="1.000000" stroke="none" 
	d="
M1003.999023,159.002243 
	C983.545898,159.001495 963.592529,159.015640 943.639221,158.990280 
	C938.200256,158.983353 937.736389,158.454742 940.675171,153.858566 
	C949.247131,140.452438 960.988953,131.865051 977.408142,130.969574 
	C996.915894,129.905624 1011.458801,137.988663 1021.479919,154.705536 
	C1023.696411,158.403030 1022.265259,158.994873 1018.964966,158.990417 
	C1014.142883,158.983917 1009.320862,158.997314 1003.999023,159.002243 
z"/>
</svg>