<svg version="1.1" id="Layer_1" xmlns="http://www.w3.org/2000/svg" xmlns:xlink="http://www.w3.org/1999/xlink" x="0px" y="0px"
	 width="100%" viewBox="0 0 1000 320" enable-background="new 0 0 1000 320" xml:space="preserve">
<path fill="#000000" opacity="1.000000" stroke="none" 
	d="
M673.000000,321.000000 
	C449.111481,321.000000 225.222946,321.000000 1.000000,321.000000 
	C1.000000,255.644409 1.000000,190.288239 1.415979,124.301926 
	C2.218186,124.519424 2.904466,125.352646 2.946047,126.216881 
	C3.677377,141.417313 4.314876,156.622223 5.004070,171.824738 
	C5.648218,186.033615 6.395643,200.238098 6.977100,214.449448 
	C7.715011,232.484589 8.297633,250.526062 9.024903,268.561676 
	C9.196754,272.823456 9.164045,277.191650 10.114945,281.305267 
	C12.921975,293.448608 21.805891,302.976562 35.878967,302.984222 
	C101.207321,303.019714 166.535797,302.944397 231.864014,303.043671 
	C246.110931,303.065308 258.167603,290.867401 258.995728,276.627197 
	C259.676086,264.928955 260.384766,253.231903 260.978821,241.529160 
	C261.707916,227.165756 262.300201,212.795425 263.008881,198.430923 
	C263.627319,185.895523 264.372955,173.366348 264.975800,160.830261 
	C265.698547,145.801682 266.383362,130.770844 266.981812,115.736877 
	C267.410095,104.976234 267.544739,94.203087 268.042877,83.446281 
	C268.451660,74.618233 267.044678,73.001488 257.970428,73.001060 
	C239.162933,73.000175 220.355438,73.000786 201.306412,73.000786 
	C200.517105,68.383499 199.949081,64.039505 199.017090,59.775051 
	C193.104935,32.723675 178.747269,12.657177 151.857269,2.984764 
	C151.098389,2.711793 150.612946,1.678673 150.000000,1.000001 
	C433.550476,1.000000 717.100952,1.000000 1001.000000,1.000000 
	C1001.000000,68.355576 1001.000000,135.711761 1000.721924,203.873184 
	C999.931152,203.714142 999.448120,202.732574 998.900757,201.788345 
	C995.486389,195.898331 992.881470,189.291641 988.469055,184.276917 
	C977.934326,172.304306 964.380310,167.244492 948.210754,168.898666 
	C936.382202,170.108734 926.194885,174.651596 918.432922,183.296082 
	C906.980530,196.050568 902.711121,211.173019 905.904053,228.330887 
	C908.518555,242.380783 915.778503,253.308517 927.951233,260.310791 
	C948.017517,271.853790 968.944580,271.329895 988.989014,260.750854 
	C1002.022644,253.871979 1001.287354,253.708725 994.097473,242.598465 
	C993.741943,242.049057 993.349609,241.523438 992.993774,240.974213 
	C991.102356,238.054672 988.666565,238.187469 986.368896,240.178955 
	C973.892578,250.992828 959.625854,252.552689 944.466003,247.895111 
	C933.506042,244.527847 927.312378,236.313766 923.631226,224.999878 
	C930.360413,224.999878 936.469238,225.077805 942.575500,224.985474 
	C962.050842,224.691010 981.525269,224.333282 1001.000000,224.000000 
	C1001.000000,256.298950 1001.000000,288.597931 1001.000000,321.000000 
	C897.977417,321.000000 794.954773,321.000000 691.466309,320.531342 
	C691.000488,299.631653 691.000488,279.200653 691.000488,258.469055 
	C713.829285,274.804321 739.418823,272.226166 756.838074,257.629181 
	C775.567749,241.934204 778.540039,215.220459 769.197754,196.672440 
	C761.902100,182.187759 750.050720,173.424774 734.295898,170.028610 
	C718.614136,166.648193 704.300110,170.246063 690.765503,180.427826 
	C690.765503,175.861847 690.765503,172.596451 690.765503,168.999985 
	C686.414673,168.999985 682.417053,169.281021 678.476562,168.926315 
	C673.919189,168.516098 672.906982,170.404205 672.918213,174.661667 
	C673.046692,223.440842 673.000000,272.220490 673.000000,321.000000 
M373.648682,126.999290 
	C385.937286,126.065437 396.785339,130.581558 407.294067,136.111862 
	C412.858978,139.040421 414.348907,139.025650 417.525452,133.906219 
	C423.722656,123.918663 425.771271,124.724716 412.958984,118.161079 
	C398.013855,110.504784 381.999939,107.106796 364.961639,109.913559 
	C351.760010,112.088303 340.545654,117.466591 332.946808,128.675095 
	C322.271820,144.421051 323.903229,163.845688 337.419647,177.007660 
	C345.787994,185.156586 356.312653,189.016281 366.836060,193.042267 
	C378.031769,197.325439 390.024078,199.603043 399.995880,206.938843 
	C414.610199,217.689926 415.376740,233.619415 402.939880,243.267471 
	C392.074768,251.696243 379.247253,253.359451 365.757812,250.409302 
	C354.709045,247.992920 344.936340,243.033615 335.966797,236.357941 
	C332.676575,233.909149 330.131378,234.532837 328.059143,237.688171 
	C325.838959,241.068710 323.853394,244.603317 321.629883,248.295837 
	C323.664276,250.218735 325.300018,252.168915 327.306671,253.598511 
	C345.808533,266.779755 366.203278,271.928192 388.919098,269.132355 
	C410.101959,266.525208 430.236786,249.924545 430.272064,227.906723 
	C430.290710,216.317520 427.923279,206.348282 419.696136,198.305206 
	C409.036530,187.884048 395.395966,182.751404 381.621460,178.014099 
	C370.362549,174.141953 358.755341,171.149384 350.177551,161.819901 
	C345.911346,157.179810 344.242188,148.929245 347.032166,142.889008 
	C352.090027,131.939087 361.436707,127.907661 373.648682,126.999290 
M513.517578,173.905685 
	C496.781250,166.551483 480.793518,169.074966 465.000610,178.170517 
	C465.000610,159.079453 465.000580,140.594727 465.000580,122.110016 
	C465.000580,108.963104 464.995148,109.192612 451.979614,108.883499 
	C446.998108,108.765198 445.891052,110.469368 445.906494,115.155212 
	C446.061371,162.151672 446.000702,209.148834 446.000702,256.145813 
	C446.000702,270.318024 445.999725,270.192963 460.278107,270.082794 
	C464.092987,270.053314 465.096100,268.693085 465.063843,265.087982 
	C464.917877,248.757004 465.033417,232.423904 464.990326,216.091736 
	C464.951904,201.533279 478.320557,188.358490 492.546478,188.070496 
	C508.692291,187.743652 522.107117,200.147919 522.018250,216.868576 
	C521.932373,233.033752 522.069458,249.200272 521.943665,265.364929 
	C521.917175,268.768188 522.920105,270.302612 526.499878,270.046295 
	C529.650208,269.820740 532.850525,269.769409 535.990662,270.056946 
	C540.054993,270.429169 541.122009,268.751678 541.075256,264.869843 
	C540.890686,249.539719 540.763489,234.201538 541.057617,218.874832 
	C541.453552,198.244827 532.105957,183.676987 513.517578,173.905685 
M887.968079,220.029922 
	C887.645447,217.434265 887.248230,214.845367 887.012573,212.241821 
	C885.727539,198.043854 879.111572,186.691513 868.052246,178.046844 
	C857.205688,169.568497 844.575073,167.146286 831.141602,169.057831 
	C820.567078,170.562576 811.567688,175.796539 804.413940,183.374832 
	C797.277893,190.934280 793.007812,200.238647 791.542664,210.797684 
	C789.108459,228.340744 793.985535,243.629745 807.004456,255.243286 
	C826.559021,272.686859 856.727783,271.575470 877.527527,259.774963 
	C886.486511,254.692200 886.726379,252.928574 881.032227,244.177383 
	C880.498657,243.357300 879.721802,242.643707 879.384399,241.756470 
	C877.702087,237.332947 874.351868,238.558640 872.241943,240.441483 
	C863.120911,248.580811 852.417603,250.266556 840.677124,250.150787 
	C827.796997,250.023773 812.041626,238.416702 810.320984,224.999832 
	C812.171448,224.999832 813.978699,224.999832 815.786011,224.999832 
	C837.285461,224.999817 858.785583,224.908997 880.283569,225.088196 
	C883.912109,225.118439 886.329956,224.176392 887.968079,220.029922 
M607.345886,168.085556 
	C605.252380,168.389908 603.164368,168.910110 601.064514,168.962952 
	C589.009583,169.266342 578.756042,174.129776 570.364319,182.310532 
	C556.929993,195.407181 552.352966,211.693054 556.171143,229.937454 
	C558.140930,239.349792 562.967285,247.909744 570.056152,254.324356 
	C581.152161,264.364868 594.423340,269.187653 609.743530,268.084534 
	C621.281189,267.253784 631.423523,263.342804 639.810608,255.578262 
	C652.141235,244.162811 657.802063,230.177414 656.139160,213.027939 
	C654.685181,198.031830 647.399658,186.778564 635.878418,178.057709 
	C627.801392,171.943924 618.424316,168.608932 607.345886,168.085556 
z"/>
<path fill="#EE4D2D" opacity="1.000000" stroke="none" 
	d="
M149.531342,1.000001 
	C150.612946,1.678673 151.098389,2.711793 151.857269,2.984764 
	C178.747269,12.657177 193.104935,32.723675 199.017090,59.775051 
	C199.949081,64.039505 200.517105,68.383499 201.306412,73.000786 
	C220.355438,73.000786 239.162933,73.000175 257.970428,73.001060 
	C267.044678,73.001488 268.451660,74.618233 268.042877,83.446281 
	C267.544739,94.203087 267.410095,104.976234 266.981812,115.736877 
	C266.383362,130.770844 265.698547,145.801682 264.975800,160.830261 
	C264.372955,173.366348 263.627319,185.895523 263.008881,198.430923 
	C262.300201,212.795425 261.707916,227.165756 260.978821,241.529160 
	C260.384766,253.231903 259.676086,264.928955 258.995728,276.627197 
	C258.167603,290.867401 246.110931,303.065308 231.864014,303.043671 
	C166.535797,302.944397 101.207321,303.019714 35.878967,302.984222 
	C21.805891,302.976562 12.921975,293.448608 10.114945,281.305267 
	C9.164045,277.191650 9.196754,272.823456 9.024903,268.561676 
	C8.297633,250.526062 7.715011,232.484589 6.977100,214.449448 
	C6.395643,200.238098 5.648218,186.033615 5.004070,171.824738 
	C4.314876,156.622223 3.677377,141.417313 2.946047,126.216881 
	C2.904466,125.352646 2.218186,124.519424 1.415979,123.835884 
	C1.000000,107.979103 1.000000,91.958214 1.306138,75.776688 
	C4.346431,74.744308 7.041382,73.313362 9.822980,73.118355 
	C15.445686,72.724167 21.115421,73.000801 26.765762,73.000801 
	C40.363281,73.000801 53.960800,73.000793 67.422676,73.000793 
	C68.010124,71.037163 68.660637,69.525932 68.880051,67.954498 
	C69.130943,66.157692 68.691177,64.239288 69.078560,62.490467 
	C75.230110,34.719284 88.949181,13.028584 117.112686,2.986970 
	C117.880348,2.713263 118.376976,1.679389 119.000000,0.999998 
	C129.020889,1.000000 139.041794,1.000000 149.531342,1.000001 
M169.021210,229.226761 
	C163.958862,242.462463 147.014023,252.019485 132.444260,249.996109 
	C118.167389,248.013412 104.849609,243.826447 93.597786,234.299469 
	C92.763573,233.593140 89.954842,233.791061 89.279579,234.592606 
	C87.258957,236.991165 85.842278,239.898514 83.953262,242.994995 
	C85.417191,244.251633 86.613121,245.430969 87.956276,246.407883 
	C103.924400,258.021820 121.636765,263.611359 141.486267,262.023376 
	C157.610184,260.733459 170.867462,254.758804 178.742371,239.761139 
	C185.372192,227.134735 185.066101,209.762009 174.246246,198.703583 
	C165.293243,189.553146 153.892502,184.746292 142.388916,179.952621 
	C132.537613,175.847427 122.304787,172.256226 113.218536,166.807175 
	C98.135704,157.761993 99.806221,136.176849 115.519974,128.159348 
	C127.422615,122.086349 139.603973,122.939613 151.698364,127.007271 
	C158.333969,129.238998 164.626221,132.491638 171.127518,135.307434 
	C172.078369,133.728134 173.028610,132.027359 174.094803,130.402679 
	C176.937454,126.070961 176.780655,124.636925 171.940826,122.543266 
	C164.350754,119.259872 156.800278,115.321342 148.815689,113.627266 
	C130.442307,109.729012 113.000351,110.955566 98.644409,125.717384 
	C86.671402,138.028900 85.328400,158.258667 98.096710,171.685349 
	C105.942589,179.935806 115.991997,184.027786 126.230438,187.973679 
	C137.111328,192.167175 148.663437,194.837311 158.223068,202.042084 
	C166.807861,208.512146 172.386826,218.835205 169.021210,229.226761 
M87.999924,66.513123 
	C87.713150,68.537994 87.426376,70.562874 87.113121,72.774734 
	C118.847992,72.774734 150.239304,72.774734 181.870331,72.774734 
	C181.870331,71.592194 181.981567,70.618080 181.841583,69.681519 
	C181.674057,68.560768 181.196899,67.487358 181.017029,66.367233 
	C178.551682,51.014755 172.392303,37.778656 159.651886,28.126873 
	C139.721573,13.028228 118.994926,17.841434 103.266151,33.443966 
	C94.481453,42.158154 90.220818,53.545177 87.999924,66.513123 
z"/>
<path fill="#EE4D2D" opacity="1.000000" stroke="none" 
	d="
M673.467957,321.000000 
	C673.000000,272.220490 673.046692,223.440842 672.918213,174.661667 
	C672.906982,170.404205 673.919189,168.516098 678.476562,168.926315 
	C682.417053,169.281021 686.414673,168.999985 690.765503,168.999985 
	C690.765503,172.596451 690.765503,175.861847 690.765503,180.427826 
	C704.300110,170.246063 718.614136,166.648193 734.295898,170.028610 
	C750.050720,173.424774 761.902100,182.187759 769.197754,196.672440 
	C778.540039,215.220459 775.567749,241.934204 756.838074,257.629181 
	C739.418823,272.226166 713.829285,274.804321 691.000488,258.469055 
	C691.000488,279.200653 691.000488,299.631653 691.000244,320.531342 
	C685.311951,321.000000 679.623962,321.000000 673.467957,321.000000 
M711.810059,248.957458 
	C730.791260,255.730789 749.165833,246.605911 754.777649,227.796463 
	C761.842896,204.115250 739.071045,182.255951 716.244202,188.027939 
	C702.307373,191.551987 690.128479,206.347870 691.201477,219.361984 
	C692.301453,232.702866 698.490051,242.924179 711.810059,248.957458 
z"/>
<path fill="#000000" opacity="1.000000" stroke="none" 
	d="
M118.531342,0.999998 
	C118.376976,1.679389 117.880348,2.713263 117.112686,2.986970 
	C88.949181,13.028584 75.230110,34.719284 69.078560,62.490467 
	C68.691177,64.239288 69.130943,66.157692 68.880051,67.954498 
	C68.660637,69.525932 68.010124,71.037163 67.422676,73.000793 
	C53.960800,73.000793 40.363281,73.000801 26.765762,73.000801 
	C21.115421,73.000801 15.445686,72.724167 9.822980,73.118355 
	C7.041382,73.313362 4.346431,74.744308 1.306138,75.308029 
	C1.000000,50.389660 1.000000,25.779318 1.000000,1.000000 
	C40.020733,1.000000 79.041710,1.000000 118.531342,0.999998 
z"/>
<path fill="#EE4D2D" opacity="1.000000" stroke="none" 
	d="
M1001.000000,223.531586 
	C981.525269,224.333282 962.050842,224.691010 942.575500,224.985474 
	C936.469238,225.077805 930.360413,224.999878 923.631226,224.999878 
	C927.312378,236.313766 933.506042,244.527847 944.466003,247.895111 
	C959.625854,252.552689 973.892578,250.992828 986.368896,240.178955 
	C988.666565,238.187469 991.102356,238.054672 992.993774,240.974213 
	C993.349609,241.523438 993.741943,242.049057 994.097473,242.598465 
	C1001.287354,253.708725 1002.022644,253.871979 988.989014,260.750854 
	C968.944580,271.329895 948.017517,271.853790 927.951233,260.310791 
	C915.778503,253.308517 908.518555,242.380783 905.904053,228.330887 
	C902.711121,211.173019 906.980530,196.050568 918.432922,183.296082 
	C926.194885,174.651596 936.382202,170.108734 948.210754,168.898666 
	C964.380310,167.244492 977.934326,172.304306 988.469055,184.276917 
	C992.881470,189.291641 995.486389,195.898331 998.900757,201.788345 
	C999.448120,202.732574 999.931152,203.714142 1000.721924,204.339218 
	C1001.000000,210.354401 1001.000000,216.708786 1001.000000,223.531586 
M967.869873,190.392227 
	C946.539612,179.902771 926.708374,194.488693 926.103638,206.761017 
	C944.494507,206.761017 962.890808,206.761017 981.643372,206.761017 
	C978.922058,199.728577 974.237488,194.853897 967.869873,190.392227 
z"/>
<path fill="#EE4D2D" opacity="1.000000" stroke="none" 
	d="
M373.180359,126.999374 
	C361.436707,127.907661 352.090027,131.939087 347.032166,142.889008 
	C344.242188,148.929245 345.911346,157.179810 350.177551,161.819901 
	C358.755341,171.149384 370.362549,174.141953 381.621460,178.014099 
	C395.395966,182.751404 409.036530,187.884048 419.696136,198.305206 
	C427.923279,206.348282 430.290710,216.317520 430.272064,227.906723 
	C430.236786,249.924545 410.101959,266.525208 388.919098,269.132355 
	C366.203278,271.928192 345.808533,266.779755 327.306671,253.598511 
	C325.300018,252.168915 323.664276,250.218735 321.629883,248.295837 
	C323.853394,244.603317 325.838959,241.068710 328.059143,237.688171 
	C330.131378,234.532837 332.676575,233.909149 335.966797,236.357941 
	C344.936340,243.033615 354.709045,247.992920 365.757812,250.409302 
	C379.247253,253.359451 392.074768,251.696243 402.939880,243.267471 
	C415.376740,233.619415 414.610199,217.689926 399.995880,206.938843 
	C390.024078,199.603043 378.031769,197.325439 366.836060,193.042267 
	C356.312653,189.016281 345.787994,185.156586 337.419647,177.007660 
	C323.903229,163.845688 322.271820,144.421051 332.946808,128.675095 
	C340.545654,117.466591 351.760010,112.088303 364.961639,109.913559 
	C381.999939,107.106796 398.013855,110.504784 412.958984,118.161079 
	C425.771271,124.724716 423.722656,123.918663 417.525452,133.906219 
	C414.348907,139.025650 412.858978,139.040421 407.294067,136.111862 
	C396.785339,130.581558 385.937286,126.065437 373.180359,126.999374 
z"/>
<path fill="#EE4D2D" opacity="1.000000" stroke="none" 
	d="
M513.896362,173.982864 
	C532.105957,183.676987 541.453552,198.244827 541.057617,218.874832 
	C540.763489,234.201538 540.890686,249.539719 541.075256,264.869843 
	C541.122009,268.751678 540.054993,270.429169 535.990662,270.056946 
	C532.850525,269.769409 529.650208,269.820740 526.499878,270.046295 
	C522.920105,270.302612 521.917175,268.768188 521.943665,265.364929 
	C522.069458,249.200272 521.932373,233.033752 522.018250,216.868576 
	C522.107117,200.147919 508.692291,187.743652 492.546478,188.070496 
	C478.320557,188.358490 464.951904,201.533279 464.990326,216.091736 
	C465.033417,232.423904 464.917877,248.757004 465.063843,265.087982 
	C465.096100,268.693085 464.092987,270.053314 460.278107,270.082794 
	C445.999725,270.192963 446.000702,270.318024 446.000702,256.145813 
	C446.000702,209.148834 446.061371,162.151672 445.906494,115.155212 
	C445.891052,110.469368 446.998108,108.765198 451.979614,108.883499 
	C464.995148,109.192612 465.000580,108.963104 465.000580,122.110016 
	C465.000580,140.594727 465.000610,159.079453 465.000610,178.170517 
	C480.793518,169.074966 496.781250,166.551483 513.896362,173.982864 
z"/>
<path fill="#EE4D2D" opacity="1.000000" stroke="none" 
	d="
M887.835327,220.429688 
	C886.329956,224.176392 883.912109,225.118439 880.283569,225.088196 
	C858.785583,224.908997 837.285461,224.999817 815.786011,224.999832 
	C813.978699,224.999832 812.171448,224.999832 810.320984,224.999832 
	C812.041626,238.416702 827.796997,250.023773 840.677124,250.150787 
	C852.417603,250.266556 863.120911,248.580811 872.241943,240.441483 
	C874.351868,238.558640 877.702087,237.332947 879.384399,241.756470 
	C879.721802,242.643707 880.498657,243.357300 881.032227,244.177383 
	C886.726379,252.928574 886.486511,254.692200 877.527527,259.774963 
	C856.727783,271.575470 826.559021,272.686859 807.004456,255.243286 
	C793.985535,243.629745 789.108459,228.340744 791.542664,210.797684 
	C793.007812,200.238647 797.277893,190.934280 804.413940,183.374832 
	C811.567688,175.796539 820.567078,170.562576 831.141602,169.057831 
	C844.575073,167.146286 857.205688,169.568497 868.052246,178.046844 
	C879.111572,186.691513 885.727539,198.043854 887.012573,212.241821 
	C887.248230,214.845367 887.645447,217.434265 887.835327,220.429688 
M816.968872,196.542999 
	C815.003296,199.831436 813.037720,203.119873 810.913757,206.673370 
	C830.321594,206.673370 848.823792,206.673370 867.440491,206.673370 
	C859.630981,185.405945 831.785522,180.160599 816.968872,196.542999 
z"/>
<path fill="#EE4D2D" opacity="1.000000" stroke="none" 
	d="
M607.721680,168.327332 
	C618.424316,168.608932 627.801392,171.943924 635.878418,178.057709 
	C647.399658,186.778564 654.685181,198.031830 656.139160,213.027939 
	C657.802063,230.177414 652.141235,244.162811 639.810608,255.578262 
	C631.423523,263.342804 621.281189,267.253784 609.743530,268.084534 
	C594.423340,269.187653 581.152161,264.364868 570.056152,254.324356 
	C562.967285,247.909744 558.140930,239.349792 556.171143,229.937454 
	C552.352966,211.693054 556.929993,195.407181 570.364319,182.310532 
	C578.756042,174.129776 589.009583,169.266342 601.064514,168.962952 
	C603.164368,168.910110 605.252380,168.389908 607.721680,168.327332 
M631.498535,236.994949 
	C637.549255,229.517532 639.195068,221.055344 637.300903,211.727173 
	C634.438354,197.630432 620.320435,186.036819 603.667969,186.786194 
	C588.017578,187.490479 573.076416,201.931183 573.282959,218.764648 
	C573.421753,230.080688 579.097534,239.402756 589.039246,245.478287 
	C603.332947,254.213303 622.068237,250.087494 631.498535,236.994949 
z"/>
<path fill="#000000" opacity="1.000000" stroke="none" 
	d="
M169.101761,228.813995 
	C172.386826,218.835205 166.807861,208.512146 158.223068,202.042084 
	C148.663437,194.837311 137.111328,192.167175 126.230438,187.973679 
	C115.991997,184.027786 105.942589,179.935806 98.096710,171.685349 
	C85.328400,158.258667 86.671402,138.028900 98.644409,125.717384 
	C113.000351,110.955566 130.442307,109.729012 148.815689,113.627266 
	C156.800278,115.321342 164.350754,119.259872 171.940826,122.543266 
	C176.780655,124.636925 176.937454,126.070961 174.094803,130.402679 
	C173.028610,132.027359 172.078369,133.728134 171.127518,135.307434 
	C164.626221,132.491638 158.333969,129.238998 151.698364,127.007271 
	C139.603973,122.939613 127.422615,122.086349 115.519974,128.159348 
	C99.806221,136.176849 98.135704,157.761993 113.218536,166.807175 
	C122.304787,172.256226 132.537613,175.847427 142.388916,179.952621 
	C153.892502,184.746292 165.293243,189.553146 174.246246,198.703583 
	C185.066101,209.762009 185.372192,227.134735 178.742371,239.761139 
	C170.867462,254.758804 157.610184,260.733459 141.486267,262.023376 
	C121.636765,263.611359 103.924400,258.021820 87.956276,246.407883 
	C86.613121,245.430969 85.417191,244.251633 83.953262,242.994995 
	C85.842278,239.898514 87.258957,236.991165 89.279579,234.592606 
	C89.954842,233.791061 92.763573,233.593140 93.597786,234.299469 
	C104.849609,243.826447 118.167389,248.013412 132.444260,249.996109 
	C147.014023,252.019485 163.958862,242.462463 169.101761,228.813995 
z"/>
<path fill="#000000" opacity="1.000000" stroke="none" 
	d="
M88.000931,66.078209 
	C90.220818,53.545177 94.481453,42.158154 103.266151,33.443966 
	C118.994926,17.841434 139.721573,13.028228 159.651886,28.126873 
	C172.392303,37.778656 178.551682,51.014755 181.017029,66.367233 
	C181.196899,67.487358 181.674057,68.560768 181.841583,69.681519 
	C181.981567,70.618080 181.870331,71.592194 181.870331,72.774734 
	C150.239304,72.774734 118.847992,72.774734 87.113121,72.774734 
	C87.426376,70.562874 87.713150,68.537994 88.000931,66.078209 
z"/>
<path fill="#000000" opacity="1.000000" stroke="none" 
	d="
M711.456238,248.778320 
	C698.490051,242.924179 692.301453,232.702866 691.201477,219.361984 
	C690.128479,206.347870 702.307373,191.551987 716.244202,188.027939 
	C739.071045,182.255951 761.842896,204.115250 754.777649,227.796463 
	C749.165833,246.605911 730.791260,255.730789 711.456238,248.778320 
z"/>
<path fill="#000000" opacity="1.000000" stroke="none" 
	d="
M968.136597,190.660477 
	C974.237488,194.853897 978.922058,199.728577 981.643372,206.761017 
	C962.890808,206.761017 944.494507,206.761017 926.103638,206.761017 
	C926.708374,194.488693 946.539612,179.902771 968.136597,190.660477 
z"/>
<path fill="#000000" opacity="1.000000" stroke="none" 
	d="
M817.219849,196.282166 
	C831.785522,180.160599 859.630981,185.405945 867.440491,206.673370 
	C848.823792,206.673370 830.321594,206.673370 810.913757,206.673370 
	C813.037720,203.119873 815.003296,199.831436 817.219849,196.282166 
z"/>
<path fill="#000000" opacity="1.000000" stroke="none" 
	d="
M631.277588,237.289429 
	C622.068237,250.087494 603.332947,254.213303 589.039246,245.478287 
	C579.097534,239.402756 573.421753,230.080688 573.282959,218.764648 
	C573.076416,201.931183 588.017578,187.490479 603.667969,186.786194 
	C620.320435,186.036819 634.438354,197.630432 637.300903,211.727173 
	C639.195068,221.055344 637.549255,229.517532 631.277588,237.289429 
z"/>
</svg>