<svg version="1.1" id="Layer_1" xmlns="http://www.w3.org/2000/svg" xmlns:xlink="http://www.w3.org/1999/xlink" x="0px" y="0px"
	 width="100%" viewBox="0 0 2560 557" enable-background="new 0 0 2560 557" xml:space="preserve">
<path fill="#000000" opacity="1.000000" stroke="none" 
	d="
M1.338667,104.296204 
	C1.000000,70.838326 1.046813,37.676476 0.919159,4.515292 
	C0.907843,1.575474 1.456350,0.338616 4.487017,0.985706 
	C4.965145,1.087793 5.483815,1.000000 5.983739,1.000000 
	C856.022461,1.000000 1706.061157,1.004879 2556.099854,0.869648 
	C2560.597412,0.868932 2561.098877,2.130162 2561.092529,6.098375 
	C2560.968018,84.086327 2561.000000,162.074524 2561.000000,240.531342 
	C2557.794678,243.570129 2557.044434,241.318024 2556.545654,238.701141 
	C2555.014160,230.668503 2553.011230,222.773193 2550.206543,215.074127 
	C2536.534424,177.541992 2510.040283,152.964233 2472.608398,140.680374 
	C2432.818848,127.622940 2392.289062,126.505394 2353.019043,141.925583 
	C2301.280518,162.241714 2272.457520,201.473389 2265.601074,256.473419 
	C2261.650635,288.162170 2265.404785,319.123383 2278.859619,348.311646 
	C2300.309326,394.843262 2335.861084,423.418640 2387.239258,430.409424 
	C2407.347168,433.145416 2427.485107,432.479004 2446.993164,425.718475 
	C2459.410645,421.415192 2470.485352,414.707062 2480.908691,406.820312 
	C2483.758057,404.664429 2485.346680,401.852570 2485.382324,398.290100 
	C2485.582520,378.294312 2485.576904,358.298065 2485.382324,338.302155 
	C2485.377686,337.812866 2485.244385,337.310242 2484.170898,336.560120 
	C2480.989746,339.511322 2478.150635,343.053070 2475.170166,346.457275 
	C2461.642822,361.907532 2445.765137,373.984222 2424.937744,376.824005 
	C2398.307373,380.455048 2374.145996,374.325562 2353.254639,356.436096 
	C2312.652588,321.668304 2311.260254,258.903809 2339.891113,220.727310 
	C2357.046875,197.851761 2380.277832,186.280594 2408.962402,185.443192 
	C2425.025635,184.974243 2440.589844,186.930847 2455.316895,193.543884 
	C2476.492188,203.052322 2492.081543,217.943161 2499.404541,240.504211 
	C2501.528076,247.046341 2502.501465,253.784210 2502.500977,260.667389 
	C2502.498535,296.664642 2502.432617,332.662048 2502.533936,368.659027 
	C2502.571045,381.796631 2505.686768,394.097046 2513.835938,404.734924 
	C2523.266357,417.045288 2535.813477,423.803864 2551.171875,425.443848 
	C2554.478271,425.796875 2557.852783,425.864288 2560.716309,428.717041 
	C2561.000000,470.493744 2560.945312,511.987640 2561.093994,553.480835 
	C2561.107178,557.183838 2560.317139,558.098145 2556.520264,558.096802 
	C2262.397949,557.991272 1968.275879,558.000000 1674.153687,558.000000 
	C1118.071045,558.000000 561.988525,557.992676 5.905974,558.129578 
	C1.423930,558.130676 0.897350,556.890930 0.905471,552.907288 
	C1.038636,487.584167 1.000000,422.260712 1.000000,356.468658 
	C4.247213,353.628113 4.941571,355.951141 5.572687,358.465454 
	C7.642553,366.711670 9.843265,374.891846 13.659660,382.578247 
	C27.275711,410.001709 50.115997,423.055328 79.903595,425.457611 
	C103.192184,427.335785 126.522987,426.184296 149.833344,426.491913 
	C151.499130,426.513885 153.165359,426.475220 154.824448,426.282410 
	C158.662277,425.836365 161.099640,423.748810 161.240326,419.864502 
	C161.728836,406.377106 161.666763,392.880768 161.276276,379.391663 
	C161.157059,375.272949 158.677032,373.084167 154.594498,372.687073 
	C152.599716,372.493042 150.600800,372.502930 148.601837,372.502106 
	C131.939514,372.495209 115.276993,372.456818 98.614967,372.524261 
	C93.421112,372.545288 88.279587,371.951019 83.211349,371.105865 
	C68.800491,368.702759 60.487991,359.124512 59.562096,344.362122 
	C59.478661,343.031830 59.504303,341.697021 59.504139,340.364044 
	C59.498482,294.042786 59.492477,247.721512 59.508526,201.400238 
	C59.511879,191.727615 59.717743,191.518433 69.196205,191.509644 
	C95.356049,191.485352 121.515907,191.504196 147.675766,191.498459 
	C149.841339,191.497971 152.013000,191.579544 154.169113,191.341888 
	C159.039108,190.805130 161.158783,188.953949 161.309998,184.021088 
	C161.708176,171.031921 161.696350,158.030075 161.318039,145.040665 
	C161.168503,139.906586 158.997910,138.085052 153.751190,137.619492 
	C151.591766,137.427872 149.421646,137.501892 147.255890,137.501114 
	C120.762802,137.491501 94.269669,137.532516 67.776642,137.476974 
	C60.045738,137.460754 59.542980,136.937195 59.518963,129.136551 
	C59.467140,112.307709 59.506279,95.478691 59.499920,78.649750 
	C59.499229,76.816963 59.540569,74.982384 59.438126,73.152130 
	C59.061684,66.426506 56.468861,64.110802 49.826275,65.047180 
	C36.058964,66.987907 24.617468,73.245697 15.658071,83.948219 
	C11.213962,89.256973 8.097512,95.291313 5.733326,101.757584 
	C5.057654,103.605621 4.602260,105.903008 1.338667,104.296204 
z"/>
<path fill="#42B549" opacity="1.000000" stroke="none" 
	d="
M2561.000000,428.531342 
	C2544.018066,428.623535 2528.508057,424.344818 2516.276611,411.746246 
	C2505.717285,400.869659 2500.239258,387.586456 2500.107910,372.604462 
	C2499.780518,335.275513 2500.314209,297.938232 2499.892822,260.611176 
	C2499.599609,234.622070 2486.921143,215.350128 2465.233887,201.657745 
	C2445.989502,189.507584 2424.586670,186.425812 2402.547363,188.204010 
	C2385.236084,189.600739 2369.596436,196.185760 2355.973389,207.430466 
	C2337.654785,222.551041 2327.837402,242.442490 2324.243896,265.257355 
	C2319.746826,293.809448 2325.451416,320.485992 2343.975586,343.242706 
	C2357.783936,360.206421 2375.546143,371.029785 2397.704834,374.134003 
	C2417.540283,376.912689 2436.100586,374.372681 2452.992676,363.003510 
	C2465.346191,354.688751 2474.879150,343.554871 2483.959473,331.980774 
	C2484.965576,330.698151 2485.733398,329.286682 2487.479248,328.797760 
	C2488.411133,330.261627 2487.974121,331.780945 2487.976318,333.206726 
	C2488.010254,355.539093 2487.922363,377.872070 2488.075195,400.203461 
	C2488.101074,403.976501 2486.669922,406.068634 2483.673828,408.249725 
	C2471.386963,417.194031 2458.590088,425.060242 2443.937988,429.548340 
	C2435.088623,432.258911 2426.037598,433.686462 2416.799072,434.000458 
	C2397.396484,434.659882 2378.214355,433.636597 2359.678955,427.043243 
	C2342.780029,421.031982 2327.611084,412.286316 2313.899170,400.587524 
	C2297.898682,386.935974 2286.180420,370.248230 2277.336914,351.506653 
	C2269.604980,335.120544 2264.948486,317.767883 2262.867920,299.653320 
	C2261.454834,287.350891 2261.299316,274.995453 2262.236572,262.835846 
	C2264.511475,233.325668 2273.398682,206.007477 2292.688477,182.765945 
	C2306.467285,166.164795 2322.389160,152.370972 2342.196289,143.344055 
	C2358.149414,136.073654 2374.775146,131.734482 2392.237549,129.839478 
	C2404.050537,128.557495 2415.868164,128.492325 2427.565674,129.194397 
	C2459.323730,131.100449 2489.083252,139.839066 2514.308105,160.002670 
	C2539.843262,180.414352 2554.222412,207.510117 2559.117920,239.739746 
	C2559.201416,240.288788 2559.826416,240.755554 2560.599609,241.130341 
	C2561.000000,303.354218 2561.000000,365.708466 2561.000000,428.531342 
z"/>
<path fill="#42B549" opacity="1.000000" stroke="none" 
	d="
M1.000000,104.468658 
	C4.567502,103.218582 3.795720,99.650131 4.548609,97.532364 
	C11.903437,76.844292 35.031868,60.852665 57.627129,61.897404 
	C61.117168,62.058773 62.098625,62.934834 62.073837,66.412949 
	C61.923016,87.575546 62.120422,108.741051 61.897625,129.902390 
	C61.853008,134.140152 63.105247,135.116013 67.195358,135.092987 
	C97.690086,134.921371 128.187088,135.111755 158.681015,134.880035 
	C163.263321,134.845245 164.162827,136.223557 164.097595,140.475845 
	C163.852203,156.469818 163.791458,172.474152 164.125366,188.464920 
	C164.225906,193.280045 162.581406,194.113663 158.238037,194.089233 
	C127.909935,193.918747 97.580025,194.073212 67.251846,193.910339 
	C63.242626,193.888824 61.883648,194.722031 61.898224,199.039688 
	C62.059700,246.865753 61.668549,294.696106 62.183193,342.517151 
	C62.359158,358.868164 69.908127,367.587677 88.137817,369.070282 
	C111.739342,370.989777 135.354828,369.506317 158.958923,369.917236 
	C162.621048,369.980988 164.171692,370.549194 164.105362,374.751526 
	C163.845062,391.245087 163.901749,407.746246 164.075699,424.242065 
	C164.113312,427.808716 163.388611,429.128113 159.467041,429.094604 
	C136.638596,428.899567 113.799164,429.375763 90.980476,428.864716 
	C75.696922,428.522430 60.421104,426.823425 46.452988,419.745300 
	C22.997950,407.859741 10.016702,388.052826 3.910331,363.049988 
	C3.314404,360.609924 3.939326,357.722321 1.390180,355.858124 
	C1.000000,272.312439 1.000000,188.624878 1.000000,104.468658 
z"/>
<path fill="#42B549" opacity="1.000000" stroke="none" 
	d="
M1992.286377,215.595703 
	C1985.644165,213.898209 1980.580444,209.284714 1974.693604,206.093582 
	C1959.905640,198.077393 1944.773804,191.333984 1927.881348,188.899918 
	C1908.875000,186.161270 1890.785522,188.937439 1873.526489,196.929932 
	C1858.402588,203.933563 1847.243896,215.357620 1839.051758,229.781128 
	C1827.947876,249.330948 1825.268188,270.689148 1827.223877,292.478424 
	C1828.977783,312.018921 1835.499878,330.045776 1848.707153,345.356293 
	C1862.785645,361.676849 1880.330933,370.989929 1901.482544,374.063293 
	C1920.253418,376.790710 1938.448120,375.477814 1955.381714,366.189819 
	C1976.151611,354.797791 1989.403442,337.273865 1996.579468,314.862305 
	C2000.101685,303.861664 2002.449707,292.679016 2003.001831,281.131683 
	C2005.276978,233.546326 2003.481445,185.933014 2003.954468,138.334702 
	C2004.207764,112.842567 2004.383057,87.338554 2003.898071,61.853138 
	C2003.348267,32.964287 2022.326416,10.351945 2049.549561,4.264300 
	C2050.667969,4.014184 2051.864014,4.133645 2053.011719,3.986630 
	C2056.750732,3.507733 2061.527344,1.190639 2063.983643,3.613255 
	C2066.782715,6.373437 2064.946777,11.520020 2064.949707,15.605493 
	C2065.015869,105.253281 2065.228271,194.902130 2064.837158,284.548279 
	C2064.741211,306.495636 2059.824219,327.749237 2051.076904,348.112518 
	C2042.376343,368.366608 2029.650513,385.599121 2013.288696,400.055939 
	C1995.399536,415.862152 1974.626831,426.140961 1951.105103,431.130341 
	C1934.107056,434.735931 1916.963013,434.799530 1899.923340,433.741821 
	C1883.239502,432.706238 1867.065796,428.403320 1851.635864,421.396088 
	C1835.529419,414.081604 1821.296387,404.197113 1809.174316,391.509766 
	C1791.189819,372.686401 1778.537231,350.712219 1771.901123,325.358337 
	C1768.560303,312.594086 1766.887939,299.702942 1765.785278,286.542328 
	C1763.275391,256.586365 1769.276245,228.523102 1783.424072,202.393661 
	C1799.039551,173.553650 1822.180420,152.668655 1852.574463,139.562378 
	C1875.223999,129.795609 1898.802246,127.581078 1922.813232,129.187241 
	C1947.656372,130.849091 1971.116699,138.072891 1992.829834,150.910706 
	C1992.057495,160.740936 1992.624756,170.219818 1992.523926,179.690430 
	C1992.398071,191.507233 1992.551880,203.326035 1992.286377,215.595703 
z"/>
<path fill="#42B549" opacity="1.000000" stroke="none" 
	d="
M1171.764648,555.969604 
	C1142.683472,555.994629 1119.862915,539.050232 1113.394531,510.657227 
	C1112.450806,506.514984 1112.060669,502.160431 1112.055786,497.903381 
	C1111.976318,427.910889 1111.701050,357.916443 1112.135620,287.926575 
	C1112.331055,256.461395 1118.783569,226.138184 1134.845947,198.631271 
	C1155.784180,162.774582 1186.472778,140.266434 1227.470093,131.843979 
	C1243.252075,128.601730 1259.115601,128.372040 1274.935059,129.199097 
	C1294.385498,130.215988 1313.147095,135.156769 1330.616333,143.985718 
	C1347.858765,152.699997 1362.605957,164.578568 1375.126587,179.449570 
	C1388.445190,195.268326 1398.236572,212.839233 1404.230225,232.563065 
	C1407.765259,244.196472 1409.890137,256.067963 1411.194702,268.199188 
	C1412.232788,277.851013 1412.207764,287.459198 1411.883667,297.038635 
	C1410.859497,327.316650 1400.830444,354.388916 1382.220581,378.417328 
	C1372.409302,391.085358 1360.968384,401.901367 1347.896851,410.972229 
	C1330.360718,423.141235 1310.998535,430.789368 1289.652100,433.026337 
	C1264.103638,435.703644 1238.945801,434.145813 1214.407104,425.988464 
	C1205.006836,422.863617 1196.367920,418.052734 1187.446533,413.865112 
	C1185.575928,412.987061 1184.936646,411.760559 1184.946899,409.631409 
	C1185.041382,389.800629 1185.047974,369.969025 1184.957397,350.138214 
	C1184.943237,347.045410 1185.996826,346.766907 1188.343872,348.123077 
	C1194.160889,351.484222 1199.889038,355.001770 1205.671265,358.416779 
	C1226.716919,370.846375 1249.259644,377.269531 1273.642090,374.838623 
	C1294.882324,372.721008 1313.649780,364.327454 1328.172974,348.209167 
	C1339.300781,335.859283 1345.857300,320.985046 1348.836304,304.768951 
	C1353.448975,279.659668 1351.288086,255.252060 1339.065063,232.354431 
	C1328.091431,211.797287 1311.377319,198.344604 1288.907104,191.860947 
	C1270.363037,186.510162 1251.897095,186.159134 1233.508545,192.051956 
	C1213.862305,198.347809 1199.697754,211.534668 1189.559448,229.062256 
	C1180.893066,244.045227 1176.728760,260.487091 1174.808716,277.681824 
	C1174.046997,284.502716 1174.048828,291.248871 1174.043457,298.022675 
	C1173.977905,382.013702 1174.012451,466.004822 1173.930664,549.995850 
	C1173.928833,551.990662 1175.369263,554.723938 1171.764648,555.969604 
z"/>
<path fill="#42B549" opacity="1.000000" stroke="none" 
	d="
M1645.250000,138.648560 
	C1662.966431,145.777161 1678.692383,155.632645 1692.875000,167.627258 
	C1704.617676,177.558228 1714.522583,189.356781 1722.379028,202.757797 
	C1732.653442,220.283325 1738.277466,239.238968 1741.138916,259.264679 
	C1743.001709,272.299622 1742.877441,285.333099 1743.069214,298.404694 
	C1743.119873,301.862976 1741.457886,302.042603 1738.803589,302.034149 
	C1718.642090,301.969818 1698.480347,302.000732 1678.318604,302.000671 
	C1620.666260,302.000519 1563.013794,301.997864 1505.361450,302.002106 
	C1499.414795,302.002563 1499.191284,302.390991 1500.629517,308.261444 
	C1508.037476,338.498810 1528.321655,357.012695 1555.790039,369.051147 
	C1566.108398,373.573273 1576.878174,376.701324 1588.091797,376.865082 
	C1605.245972,377.115692 1620.535645,370.994446 1634.377197,361.092438 
	C1646.122070,352.690247 1655.799805,342.054779 1665.540039,331.555023 
	C1667.443604,329.503082 1668.470947,330.546967 1669.457642,331.262024 
	C1684.728271,342.329163 1699.927002,353.495697 1715.110352,364.682709 
	C1716.885864,365.990967 1717.328979,367.292694 1715.969360,369.700165 
	C1709.451416,381.241974 1701.631470,391.929688 1692.187134,401.020050 
	C1677.097168,415.544373 1659.192871,425.597290 1638.759033,431.087830 
	C1623.042236,435.310852 1607.163086,437.510437 1590.913086,436.991547 
	C1570.663696,436.344910 1551.229248,431.818207 1532.680664,423.835541 
	C1516.953247,417.067017 1502.020386,408.643036 1489.109009,397.356506 
	C1476.521240,386.352722 1465.394409,373.923767 1457.003174,359.219360 
	C1447.975830,343.400208 1441.626953,326.608887 1438.460083,308.729462 
	C1436.156982,295.726654 1435.481689,282.673218 1436.749634,269.325134 
	C1438.821777,247.512039 1445.145508,227.246185 1455.462158,208.111969 
	C1464.788452,190.814377 1477.133667,176.041077 1492.084351,163.177124 
	C1505.890259,151.298172 1521.401489,142.627106 1538.306641,136.495895 
	C1549.216187,132.539169 1560.626587,130.209579 1572.264526,128.820206 
	C1579.914551,127.906929 1587.497437,128.029480 1595.102051,128.061523 
	C1610.349243,128.125824 1625.032593,131.403534 1639.308228,136.649460 
	C1641.151489,137.326813 1643.058960,137.828995 1645.250000,138.648560 
z"/>
<path fill="#42B549" opacity="1.000000" stroke="none" 
	d="
M692.342896,138.119797 
	C693.250000,135.872879 694.460693,134.964767 696.661133,134.970642 
	C718.802979,135.029709 740.945129,135.006607 763.659546,135.006607 
	C761.249451,141.308258 757.613586,146.401718 754.536438,151.737030 
	C742.410522,172.761475 730.177979,193.727234 717.724121,214.558792 
	C709.955872,227.552750 702.109497,240.563873 690.652100,250.827942 
	C688.179688,253.042816 687.628540,253.894882 691.600342,255.414352 
	C702.702942,259.661774 712.951660,265.377533 721.586487,273.939911 
	C732.921265,285.179596 738.943054,298.903290 741.946167,314.190796 
	C743.602600,322.623566 744.085510,331.182617 744.047180,339.803680 
	C743.922119,367.967224 743.971985,396.131714 744.041504,424.295654 
	C744.048889,427.298584 743.994751,429.528564 739.941895,429.017090 
	C729.989990,427.761047 720.143921,426.461548 711.261475,421.114258 
	C696.822205,412.421844 687.308716,400.192474 684.068665,383.582489 
	C681.567688,370.761200 683.716370,357.712677 682.946045,344.798035 
	C682.317749,334.264465 680.736023,323.955688 674.520142,314.879608 
	C668.057922,305.443665 658.823853,301.183899 647.909790,300.037872 
	C629.176514,298.070831 610.364685,299.418762 591.596069,298.918457 
	C587.764465,298.816315 586.907593,300.038361 586.919006,303.697296 
	C587.044556,343.859894 586.961670,384.023102 587.060669,424.185852 
	C587.069153,427.616577 586.613525,429.669281 582.542908,429.010101 
	C574.639465,427.730316 566.497192,427.489502 559.113647,423.930847 
	C540.153931,414.792877 528.656799,400.251831 525.904480,378.962250 
	C524.380066,367.171478 525.073792,355.400818 525.060120,343.630737 
	C524.950562,249.639465 524.929382,155.647903 525.064514,61.656715 
	C525.088379,45.056721 530.470886,30.244936 542.880188,18.702370 
	C552.010620,10.209589 562.688599,4.803864 575.417542,3.932880 
	C579.135315,3.678495 583.778931,1.180670 586.256470,3.886406 
	C588.563354,6.405805 586.966248,11.215581 586.968445,15.008840 
	C587.008118,83.669189 586.976318,152.329590 587.033630,220.989914 
	C587.038757,227.113525 584.429138,235.260147 588.006897,238.827164 
	C591.841125,242.649811 600.014343,239.601440 606.278503,240.001556 
	C610.285522,240.257477 614.135986,239.205673 618.000000,238.473663 
	C630.339783,236.136032 638.785217,228.594772 645.000305,218.044159 
	C660.651855,191.474442 676.377747,164.948563 692.342896,138.119797 
z"/>
<path fill="#42B549" opacity="1.000000" stroke="none" 
	d="
M186.273529,238.442642 
	C191.677917,219.922073 199.620453,203.066360 211.056625,188.016937 
	C223.419846,171.747559 238.402115,158.405640 256.262177,148.262024 
	C272.719147,138.915298 290.409180,133.077240 308.933441,130.284042 
	C322.665680,128.213440 336.615906,128.352905 350.561127,129.835571 
	C363.708954,131.233444 376.326996,134.225616 388.686249,138.831924 
	C403.137268,144.217789 416.034332,152.092148 428.146423,161.548416 
	C440.730865,171.373459 451.383942,182.895035 460.514709,195.929840 
	C471.998413,212.323563 479.499420,230.589279 482.711700,250.093887 
	C487.790070,280.929169 486.386139,311.644714 474.816071,341.120789 
	C468.466400,357.297333 459.064270,371.698578 447.120148,384.504913 
	C433.860626,398.721558 418.980560,410.628967 401.487305,419.177704 
	C386.484863,426.509247 370.766266,431.324188 354.090332,433.051514 
	C329.145752,435.635376 304.607056,434.484680 280.731018,426.038452 
	C264.153442,420.174103 249.237457,411.503265 235.696625,400.273621 
	C219.361633,386.726715 205.586472,371.055420 196.138809,352.020203 
	C189.644348,338.935089 185.396255,325.003906 182.902985,310.503571 
	C180.522354,296.658447 180.725266,282.750549 181.140579,268.867462 
	C181.444275,258.715149 183.766907,248.725708 186.273529,238.442642 
z"/>
<path fill="#42B549" opacity="1.000000" stroke="none" 
	d="
M776.000366,261.032959 
	C779.447449,234.591049 788.336609,210.720032 803.978394,189.565704 
	C816.735779,172.312180 832.380493,158.402969 851.201233,147.810471 
	C867.454468,138.662979 884.849426,133.143005 902.994446,130.293030 
	C916.707031,128.139267 930.661133,128.439407 944.607300,129.819122 
	C957.969727,131.141083 970.749756,134.360672 983.229492,138.999832 
	C997.337036,144.244125 1009.938599,152.132935 1021.843384,161.284744 
	C1038.004639,173.708755 1050.859375,188.939133 1060.991699,206.525070 
	C1068.339478,219.278091 1072.840698,233.085953 1076.043335,247.409317 
	C1079.661743,263.592743 1079.582397,280.011658 1078.823975,296.346375 
	C1078.075928,312.460876 1074.150146,328.121979 1067.932495,343.060852 
	C1060.773560,360.261047 1050.194214,375.073364 1037.206055,388.523071 
	C1016.645752,409.814026 992.105713,423.740753 963.542419,430.604034 
	C952.982849,433.141357 942.136353,433.977509 931.168640,434.165436 
	C912.982849,434.476990 895.218872,432.773376 877.897461,427.066193 
	C860.072998,421.193176 844.018738,412.269348 829.594238,400.196991 
	C813.978027,387.127167 800.544739,372.217010 791.153870,354.144135 
	C784.043091,340.459229 779.445801,325.796143 776.888794,310.455627 
	C774.606750,296.764679 775.076782,283.042908 775.049194,269.306244 
	C775.043945,266.700562 775.666382,264.093658 776.000366,261.032959 
z"/>
<path fill="#42B549" opacity="1.000000" stroke="none" 
	d="
M2137.000000,212.000000 
	C2137.000000,187.834991 2137.100830,164.169144 2136.906738,140.505722 
	C2136.872314,136.305267 2137.668457,134.789841 2142.290527,134.876892 
	C2158.949951,135.190735 2175.621094,135.149750 2192.282959,134.900116 
	C2196.722412,134.833603 2198.126221,135.869522 2198.112793,140.577667 
	C2197.941406,201.072952 2197.999756,261.568909 2197.999756,322.064667 
	C2198.000000,356.062286 2198.004150,390.059906 2197.994141,424.057526 
	C2197.992676,429.319214 2197.396729,429.306793 2192.238037,428.734558 
	C2183.360107,427.749756 2174.704102,426.380341 2166.772217,421.953308 
	C2151.039795,413.172668 2141.514160,399.975616 2137.918945,382.312469 
	C2137.079346,378.188171 2137.006348,374.114746 2137.005615,369.988647 
	C2136.997070,317.492432 2136.999756,264.996216 2137.000000,212.000000 
z"/>
<path fill="#42B549" opacity="1.000000" stroke="none" 
	d="
M2131.071289,77.663864 
	C2131.410889,66.253967 2133.523193,56.024414 2142.241943,48.202938 
	C2150.674561,40.638313 2160.741455,37.870159 2171.543701,39.203526 
	C2187.484131,41.171085 2199.026367,49.862072 2202.218262,65.956337 
	C2206.180664,85.933006 2199.601562,106.317261 2176.174316,110.534050 
	C2158.063232,113.793968 2139.970947,109.147896 2132.583008,85.304474 
	C2131.837891,82.900055 2132.749023,80.253906 2131.071289,77.663864 
z"/>
<path fill="#808080" opacity="1.000000" stroke="none" 
	d="
M1992.450928,215.782806 
	C1992.104126,194.675247 1991.567627,173.300613 1992.615601,151.605103 
	C1992.822754,172.691559 1992.806030,194.104813 1992.450928,215.782806 
z"/>
<path fill="#000000" opacity="1.000000" stroke="none" 
	d="
M1592.883911,187.000061 
	C1610.635498,188.003448 1626.061279,194.089325 1640.749512,203.071335 
	C1655.362671,212.007355 1665.571167,224.149292 1671.575317,240.063461 
	C1673.755615,245.842422 1673.749390,245.998108 1667.552368,245.998489 
	C1616.442261,246.001617 1565.332031,245.999512 1514.221924,245.998993 
	C1512.611328,245.998978 1511.000732,245.998993 1509.219727,245.998993 
	C1520.035400,217.368362 1552.789062,185.701385 1592.883911,187.000061 
z"/>
<path fill="#000000" opacity="1.000000" stroke="none" 
	d="
M247.270142,255.466431 
	C251.545578,238.305542 258.939636,223.171951 271.481567,211.192551 
	C284.633057,198.630905 300.434753,191.196884 318.695557,188.907028 
	C333.649750,187.031845 348.426514,187.305878 362.620026,192.405060 
	C390.499939,202.421143 409.016541,222.013214 416.805237,250.459473 
	C426.057098,284.249542 422.161041,316.636047 400.227936,344.892700 
	C387.510132,361.277130 369.871857,370.839539 349.103821,374.018402 
	C332.651245,376.536652 316.398193,375.881134 300.729187,369.965240 
	C281.430573,362.679016 266.973480,349.836517 256.817139,331.706512 
	C245.595276,311.674438 243.983643,290.114655 245.090546,267.975677 
	C245.293701,263.912476 246.407837,259.894806 247.270142,255.466431 
z"/>
<path fill="#000000" opacity="1.000000" stroke="none" 
	d="
M1004.739502,328.603821 
	C995.410278,345.702454 983.179382,359.336395 965.381348,367.220795 
	C954.945801,371.843689 944.167725,374.723145 932.585754,375.138763 
	C919.669617,375.602264 907.122192,374.503510 894.971741,370.047852 
	C876.592407,363.307983 862.302490,351.512787 852.338562,334.676270 
	C843.736328,320.140656 839.685120,304.377380 838.819275,287.432129 
	C837.841309,268.291809 840.862427,250.118729 849.515137,233.138168 
	C862.717407,207.229050 884.132385,192.718811 912.965576,188.950027 
	C930.637634,186.640121 947.721375,188.020828 964.144653,195.518814 
	C980.021606,202.767349 992.179932,214.030197 1001.337036,228.744293 
	C1013.144958,247.718063 1016.029053,268.740845 1014.867676,290.452454 
	C1014.163269,303.621613 1010.469910,316.250671 1004.739502,328.603821 
z"/>
</svg>